<svg id="Capa_1" enable-background="new 0 0 512 512" height="512" viewBox="0 0 512 512" width="512"
     xmlns="http://www.w3.org/2000/svg">
    <g>
        <g>
            <path d="m378.543 330.51h-245.086c-16.591 0-30.041-13.45-30.041-30.041v-140.385c0-84.135 68.449-152.584 152.584-152.584s152.584 68.449 152.584 152.584v140.385c0 16.591-13.45 30.041-30.041 30.041zm-215.045-60.082h185.004v-110.344c0-51.005-41.496-92.502-92.502-92.502s-92.502 41.496-92.502 92.502z"
                  fill="#f9f6f6"/>
            <g fill="#dddaec">
                <path d="m131.388 300.469v-140.385c0-79.42 60.995-144.85 138.598-151.937-4.608-.42-9.27-.647-13.986-.647-84.135 0-152.584 68.449-152.584 152.584v140.385c0 16.591 13.45 30.041 30.041 30.041h27.972c-16.591 0-30.041-13.45-30.041-30.041z"/>
                <path d="m283.972 67.582c-4.753 0-9.424.361-13.986 1.056 44.393 6.762 78.516 45.193 78.516 91.445v110.344h27.972v-110.343c0-51.006-41.497-92.502-92.502-92.502z"/>
            </g>
            <path d="m460.52 264.51v178.85c0 33.76-27.38 61.14-61.16 61.14h-286.72c-33.78 0-61.16-27.38-61.16-61.14v-178.85c0-33.77 27.38-61.14 61.16-61.14h286.72c33.78 0 61.16 27.37 61.16 61.14z"
                  fill="#df75a5"/>
            <path d="m168.575 504.5h-55.937c-33.776 0-61.154-27.378-61.154-61.144v-178.845c0-33.766 27.378-61.144 61.154-61.144h55.937c-33.776 0-61.154 27.378-61.154 61.144v178.845c.001 33.766 27.378 61.144 61.154 61.144z"
                  fill="#dd5790"/>
            <g>
                <g fill="#ffc250">
                    <path d="m230.06 490.03v14.47h-28.02v-8.65l-55.09-55.11c-5.48-5.47-5.48-14.34 0-19.81 5.47-5.47 14.34-5.47 19.81 0l59.19 59.2c2.63 2.63 4.11 6.19 4.11 9.9z"/>
                    <path d="m390.86 404.42-55.09 55.1v44.98h-28.03v-50.79c0-3.72 1.48-7.28 4.1-9.9l59.2-59.21c5.47-5.46 14.35-5.46 19.82 0 5.47 5.47 5.47 14.35 0 19.82z"/>
                    <path d="m282.92 425.54v78.96h-28.02v-73.15l-37.5-37.49c-5.47-5.48-5.47-14.35 0-19.83 5.47-5.47 14.34-5.47 19.81 0l41.6 41.61c2.63 2.63 4.11 6.19 4.11 9.9z"/>
                </g>
                <circle cx="156.849" cy="430.841" fill="#ffe07d" r="28.133"/>
                <path d="m166.516 457.276c-3.01 1.1-6.269 1.702-9.673 1.702-15.537 0-28.127-12.6-28.127-28.137s12.59-28.137 28.127-28.137c3.404 0 6.663.602 9.673 1.702-10.773 3.954-18.464 14.292-18.464 26.435s7.691 22.481 18.464 26.435z"
                      fill="#ffc250"/>
                <circle cx="380.95" cy="394.516" fill="#ffe07d" r="28.133"/>
                <path d="m390.616 420.95c-3.01 1.1-6.269 1.702-9.673 1.702-15.537 0-28.127-12.6-28.127-28.137s12.59-28.137 28.127-28.137c3.404 0 6.663.602 9.673 1.702-10.773 3.954-18.464 14.292-18.464 26.435.001 12.144 7.691 22.481 18.464 26.435z"
                      fill="#ffc250"/>
                <circle cx="227.302" cy="383.943" fill="#ffe07d" r="28.133"/>
                <path d="m236.969 410.377c-3.01 1.1-6.269 1.702-9.673 1.702-15.537 0-28.127-12.6-28.127-28.137s12.59-28.137 28.127-28.137c3.404 0 6.663.602 9.673 1.702-10.773 3.954-18.464 14.292-18.464 26.435 0 12.144 7.691 22.481 18.464 26.435z"
                      fill="#ffc250"/>
            </g>
        </g>
        <g>
            <path d="m257.796 264.324c-4.155 0-7.545.282-10.538.813l4.066-24.546h29.687c4.142 0 7.5-3.358 7.5-7.5s-3.358-7.5-7.5-7.5h-36.046c-3.669 0-6.799 2.654-7.399 6.274l-7.141 43.101c-.463 2.792.695 5.601 2.978 7.272 2.283 1.672 5.322 1.911 7.843.628.07-.036.386-.193.901-.425 4.183-1.883 7.533-3.117 15.649-3.117 6.045 0 11.671 2.418 15.84 6.81 4.167 4.388 6.288 10.144 5.973 16.206-.589 11.359-9.971 20.437-21.358 20.667-7.217.153-14.019-3.267-18.222-9.128-2.413-3.366-7.098-4.138-10.465-1.724-3.366 2.414-4.138 7.099-1.724 10.465 6.938 9.676 18.096 15.392 29.968 15.391.248 0 .497-.002.746-.007 19.212-.387 35.041-15.711 36.036-34.886.53-10.211-3.048-19.91-10.074-27.311-6.93-7.298-16.669-11.483-26.72-11.483z"/>
            <path d="m202.188 322.79c-12.499.157-25.88.245-35.3.214 5.354-7.052 13.911-18.509 26.798-36.922 5.882-8.405 9.705-16.29 11.362-23.434.208-1.171.626-4.222.668-5.406 0-17.672-14.377-32.049-32.049-32.049-15.281 0-28.507 10.87-31.448 25.845-.798 4.065 1.849 8.007 5.914 8.805 4.062.798 8.006-1.849 8.805-5.914 1.563-7.96 8.599-13.737 16.729-13.737 9.256 0 16.812 7.414 17.044 16.615l-.357 2.798c-1.272 5.188-4.284 11.199-8.956 17.875-15.237 21.771-24.333 33.681-29.221 40.08-5.914 7.744-7.699 10.081-6.355 14.45.765 2.486 2.66 4.397 5.199 5.243 1.028.343 2.329.777 20.46.777 7.252 0 17.198-.069 30.896-.242 4.142-.052 7.457-3.452 7.405-7.594-.052-4.141-3.454-7.44-7.594-7.404z"/>
            <path d="m341.053 267.523c-3.719 0-7.304.583-10.672 1.656 9.251-17.889 21.672-27.438 21.855-27.576 3.308-2.476 3.991-7.163 1.524-10.48-2.472-3.324-7.17-4.014-10.494-1.542-1.3.967-31.728 24.073-37.016 67.636-.287 1.809-.441 3.662-.441 5.55 0 19.434 15.811 35.244 35.244 35.244s35.244-15.81 35.244-35.244-15.81-35.244-35.244-35.244zm0 55.487c-11.163 0-20.244-9.081-20.244-20.244s9.082-20.244 20.244-20.244 20.244 9.081 20.244 20.244-9.081 20.244-20.244 20.244z"/>
            <path d="m416.08 197.937v-37.857c0-88.268-71.811-160.08-160.08-160.08-33.405 0-65.425 10.225-92.6 29.57-3.375 2.402-4.163 7.085-1.76 10.459 2.402 3.375 7.085 4.162 10.459 1.76 24.62-17.525 53.632-26.789 83.901-26.789 79.998 0 145.08 65.083 145.08 145.08v35.833c-.572-.014-1.139-.043-1.714-.043h-43.366v-35.79c0-55.14-44.86-100-100-100s-100 44.86-100 100v35.789h-43.366c-.575 0-1.142.029-1.714.043v-35.832c0-37.164 14.092-72.535 39.68-99.597 2.846-3.01 2.713-7.757-.297-10.603-3.01-2.845-7.756-2.712-10.603.297-28.232 29.859-43.78 68.89-43.78 109.903v37.856c-29.799 7.484-51.933 34.492-51.933 66.579v178.838c0 37.852 30.795 68.646 68.646 68.646h286.732c37.852 0 68.646-30.795 68.646-68.646v-178.837c.001-32.088-22.132-59.095-51.931-66.579zm-245.08-37.857c0-46.869 38.131-85 85-85s85 38.131 85 85v35.789h-170zm36.345 330.468-30.333-30.349c3.601-2.481 6.724-5.605 9.204-9.207l34.441 34.441c1.228 1.228 1.903 2.86 1.903 4.597v6.97h-13.02v-1.15c0-1.988-.789-3.895-2.195-5.302zm-50.496-39.074c-11.377 0-20.633-9.256-20.633-20.633s9.256-20.633 20.633-20.633 20.633 9.256 20.633 20.633-9.256 20.633-20.633 20.633zm103.354-25.427-12.743-12.743c3.603-2.481 6.727-5.606 9.208-9.209l16.839 16.839c1.216 1.22 1.913 2.899 1.913 4.606v71.46h-13.02v-65.65c0-1.989-.79-3.897-2.197-5.303zm-32.901-21.472c-11.377 0-20.633-9.255-20.633-20.632s9.256-20.633 20.633-20.633 20.632 9.256 20.632 20.633-9.255 20.632-20.632 20.632zm225.71 38.779c0 29.581-24.066 53.646-53.646 53.646h-56.096v-34.374l32.811-32.819c1.593.219 3.216.341 4.869.341 19.648 0 35.633-15.984 35.633-35.632s-15.985-35.633-35.633-35.633-35.633 15.985-35.633 35.633c0 1.653.122 3.277.341 4.87l-8.581 8.581c-2.929 2.929-2.929 7.678 0 10.606 1.464 1.464 3.384 2.197 5.303 2.197s3.839-.732 5.303-2.197l3.903-3.903c2.481 3.603 5.606 6.728 9.21 9.209l-30.329 30.337c-1.406 1.407-2.196 3.314-2.196 5.303v37.481h-13.03v-43.29c0-1.711.694-3.387 1.903-4.597l9.45-9.45c2.929-2.929 2.929-7.678 0-10.606-2.929-2.929-7.678-2.929-10.606 0l-9.451 9.451c-4.06 4.061-6.296 9.459-6.296 15.203v43.289h-9.82v-71.46c0-5.728-2.233-11.124-6.297-15.203l-21.529-21.53c.218-1.592.341-3.214.341-4.865 0-19.648-15.984-35.633-35.632-35.633s-35.633 15.985-35.633 35.633 15.985 35.632 35.633 35.632c1.654 0 3.28-.123 4.874-.342l15.223 15.223v62.545h-9.84v-6.97c0-5.743-2.236-11.143-6.297-15.203l-39.122-39.121c.218-1.592.341-3.213.341-4.864 0-19.648-15.985-35.633-35.633-35.633s-35.633 15.985-35.633 35.633 15.985 35.633 35.633 35.633c1.657 0 3.286-.123 4.884-.343l30.852 30.868h-79.952c-29.581 0-53.646-24.066-53.646-53.646v-178.838c0-29.581 24.066-53.646 53.646-53.646h286.732c29.581 0 53.646 24.066 53.646 53.646zm-72.063-28.206c-11.377 0-20.633-9.256-20.633-20.632 0-11.377 9.256-20.633 20.633-20.633s20.633 9.256 20.633 20.633c0 11.376-9.256 20.632-20.633 20.632z"/>
        </g>
    </g>
</svg>
